<?xml version="1.0" encoding="UTF-8" standalone="no"?>
<svg width="29px" height="34px" viewBox="0 0 29 34" version="1.1" xmlns="http://www.w3.org/2000/svg" xmlns:xlink="http://www.w3.org/1999/xlink">
    <!-- Generator: Sketch 3.8.3 (29802) - http://www.bohemiancoding.com/sketch -->
    <title>check</title>
    <desc>Created with Sketch.</desc>
    <defs></defs>
    <g id="Page-1" stroke="none" stroke-width="1" fill="none" fill-rule="evenodd">
        <g id="Home" transform="translate(-164.000000, -1216.000000)">
            <g id="voordeel" transform="translate(0.000000, 1079.000000)">
                <g id="Group-5">
                    <g id="Group-4" transform="translate(158.000000, 134.000000)">
                        <g id="check">
                            <path d="M18.2895718,36.9386667 C12.0573776,36.9386667 7,31.8018667 7,25.4672 C7,19.1328 12.0573776,14 18.2895718,14 C24.5257012,14 29.5754706,19.1328 29.5754706,25.4672 C29.5754706,31.8018667 24.5257012,36.9386667 18.2895718,36.9386667 L18.2895718,36.9386667 Z" id="Fill-4" fill="#FFFFFF"></path>
                            <path d="M15.2956569,28.0123308 L16.4416495,29.400694 L17.468385,30.644578 L18.4003903,29.3282196 L19.4406496,27.8589641 L33.9560481,7.12032719 C34.7893918,5.94331792 34.5107957,4.31360487 33.3337865,3.4802612 C32.1567772,2.64691753 30.5270642,2.92551355 29.6937205,4.10252282 L17.1273804,22.0429077 L11.2155307,14.8652609 C10.297485,13.7530539 8.65163988,13.5956551 7.53943287,14.5137009 C6.42722587,15.4317467 6.2698271,17.0775918 7.18787289,18.1897988 L15.2956569,28.0123308 Z" id="Combined-Shape" fill="#FEB42C"></path>
                        </g>
                    </g>
                </g>
            </g>
        </g>
    </g>
</svg>