<?xml version="1.0" encoding="UTF-8" standalone="no"?>
<svg width="45px" height="45px" viewBox="0 0 45 45" version="1.1" xmlns="http://www.w3.org/2000/svg" xmlns:xlink="http://www.w3.org/1999/xlink">
    <!-- Generator: Sketch 3.8.3 (29802) - http://www.bohemiancoding.com/sketch -->
    <title>Combined Shape</title>
    <desc>Created with Sketch.</desc>
    <defs></defs>
    <g id="Symbols" stroke="none" stroke-width="1" fill="none" fill-rule="evenodd">
        <g id="Footer" transform="translate(-1290.000000, -55.000000)" fill="#FFFFFF">
            <g id="Group-12" transform="translate(105.000000, 39.000000)">
                <g id="Group" transform="translate(1075.000000, 16.000000)">
                    <g id="linkedin" transform="translate(110.000000, 0.000000)">
                        <path d="M22.4452555,45 C34.8414278,45 44.8905109,34.9264069 44.8905109,22.5 C44.8905109,10.0735931 34.8414278,0 22.4452555,0 C10.0490832,0 0,10.0735931 0,22.5 C0,34.9264069 10.0490832,45 22.4452555,45 Z M17.7776,33.37376 L13,33.37376 L13,19 L17.7776,19 L17.7776,33.37376 Z M34.58368,33.4136008 L29.80608,33.4136008 L29.80608,25.7220808 C29.80608,23.7905608 29.11488,22.4721608 27.38624,22.4721608 C26.06656,22.4721608 25.28064,23.3611208 24.9344,24.2200008 C24.80832,24.5265608 24.7776,24.9553608 24.7776,25.3854408 L24.7776,33.4129608 L20,33.4129608 C20,33.4129608 20.06272,20.3864008 20,19.0392008 L24.7776,19.0392008 L24.7776,21.0737608 C25.41248,20.0945608 26.54784,18.7000008 29.08416,18.7000008 C32.2272,18.7000008 34.58432,20.7550408 34.58432,25.1704008 L34.58432,33.4136008 L34.58368,33.4136008 Z M15.67136,16.9664 L15.63936,16.9664 C14.0368,16.9664 13,15.8624 13,14.4832 C13,13.07328 14.0688,12 15.70272,12 C17.33728,12 18.34272,13.07328 18.37472,14.4832 C18.37472,15.8624 17.33664,16.9664 15.67136,16.9664 Z" id="Combined-Shape"></path>
                    </g>
                </g>
            </g>
        </g>
    </g>
</svg>