<?xml version="1.0" encoding="UTF-8" standalone="no"?>
<svg width="45px" height="45px" viewBox="0 0 45 45" version="1.1" xmlns="http://www.w3.org/2000/svg" xmlns:xlink="http://www.w3.org/1999/xlink">
    <!-- Generator: Sketch 3.8.3 (29802) - http://www.bohemiancoding.com/sketch -->
    <title>Shape 5</title>
    <desc>Created with Sketch.</desc>
    <defs></defs>
    <g id="Symbols" stroke="none" stroke-width="1" fill="none" fill-rule="evenodd">
        <g id="Footer" transform="translate(-1235.000000, -55.000000)" fill="#FFFFFF">
            <g id="Group-12" transform="translate(105.000000, 39.000000)">
                <g id="Group" transform="translate(1075.000000, 16.000000)">
                    <path d="M77.5,45 C89.9264069,45 100,34.9264069 100,22.5 C100,10.0735931 89.9264069,0 77.5,0 C65.0735931,0 55,10.0735931 55,22.5 C55,34.9264069 65.0735931,45 77.5,45 Z M90.5900002,14.5579452 C89.6117589,14.9918919 88.5602626,15.2850451 87.4569161,15.4169309 C88.5831299,14.7418142 89.4482313,13.6727685 89.8554551,12.398848 C88.8012998,13.0241087 87.6338717,13.4779978 86.3911942,13.7226245 C85.3962014,12.6623536 83.9784297,12 82.4093616,12 C79.3967297,12 76.9540515,14.4424123 76.9540515,17.4550442 C76.9540515,17.8826093 77.0023121,18.2990066 77.0952437,18.6982534 C72.5614054,18.4707771 68.5418152,16.2989168 65.8513195,12.9984495 C65.3817424,13.8041225 65.112653,14.7411494 65.112653,15.7409284 C65.112653,17.6335952 66.075738,19.3033059 67.5395102,20.2815471 C66.64516,20.2532289 65.8041225,20.0078044 65.0686468,19.5992511 C65.068115,19.6219854 65.068115,19.6448527 65.068115,19.667853 C65.068115,22.3108858 66.9485504,24.5157175 69.4441424,25.0169365 C68.9863978,25.141643 68.5044565,25.2082506 68.0068271,25.2082506 C67.6551761,25.2082506 67.3134963,25.1739497 66.9803253,25.1103999 C67.6747196,27.277607 69.689168,28.854918 72.0764063,28.8987913 C70.2093987,30.3620316 67.8572591,31.2340463 65.3013081,31.2340463 C64.8609799,31.2340463 64.4267674,31.2082542 64,31.1577334 C66.414227,32.7056625 69.2818112,33.6089203 72.3623803,33.6089203 C82.3964655,33.6089203 87.8835505,25.296396 87.8835505,18.0874842 C87.8835505,17.8509673 87.8782325,17.61578 87.8677295,17.3816562 C88.9338503,16.6126772 89.8586459,15.6518524 90.5900002,14.5579452 Z" id="Shape-5"></path>
                </g>
            </g>
        </g>
    </g>
</svg>