<?xml version="1.0" encoding="UTF-8" standalone="no"?>
<svg width="45px" height="45px" viewBox="0 0 45 45" version="1.1" xmlns="http://www.w3.org/2000/svg" xmlns:xlink="http://www.w3.org/1999/xlink">
    <!-- Generator: Sketch 3.8.3 (29802) - http://www.bohemiancoding.com/sketch -->
    <title>Oval 34</title>
    <desc>Created with Sketch.</desc>
    <defs></defs>
    <g id="Symbols" stroke="none" stroke-width="1" fill="none" fill-rule="evenodd">
        <g id="Footer" transform="translate(-1180.000000, -55.000000)" fill="#FFFFFF">
            <g id="Group-12" transform="translate(105.000000, 39.000000)">
                <g id="Group" transform="translate(1075.000000, 16.000000)">
                    <path d="M22.5,45 C34.9264069,45 45,34.9264069 45,22.5 C45,10.0735931 34.9264069,0 22.5,0 C10.0735931,0 0,10.0735931 0,22.5 C0,34.9264069 10.0735931,45 22.5,45 Z M19.1398905,35.3073929 L19.1398905,23.4323819 L16,23.4323819 L16,19.1566489 L19.1398905,19.1566489 L19.1398905,15.5047871 C19.1398905,12.6350716 20.9946616,10 25.2683181,10 C26.9987303,10 28.2785431,10.1658888 28.2785431,10.1658888 L28.177487,14.1585264 C28.177487,14.1585264 26.8725255,14.1458368 25.4485117,14.1458368 C23.9072913,14.1458368 23.6604192,14.8559979 23.6604192,16.0349854 C23.6604192,16.96687 23.6604192,14.048703 23.6604192,19.1568796 L28.3000002,19.1568796 L28.0981188,23.4326126 L23.6604192,23.4326126 L23.6604192,35.3076236 L19.1398905,35.3076236 L19.1398905,35.3073929 Z" id="Oval-34"></path>
                </g>
            </g>
        </g>
    </g>
</svg>