<?xml version="1.0" encoding="UTF-8" standalone="no"?>
<svg width="27px" height="22px" viewBox="0 0 27 22" version="1.1" xmlns="http://www.w3.org/2000/svg" xmlns:xlink="http://www.w3.org/1999/xlink">
    <!-- Generator: Sketch 3.8.3 (29802) - http://www.bohemiancoding.com/sketch -->
    <title>Shape 5</title>
    <desc>Created with Sketch.</desc>
    <defs></defs>
    <g id="Page-1" stroke="none" stroke-width="1" fill="none" fill-rule="evenodd">
        <g id="Home" transform="translate(-1158.000000, -3630.000000)" fill="#439FDB">
            <g id="blog" transform="translate(106.000000, -1922.000000)">
                <g id="Group" transform="translate(855.000000, 5552.000000)">
                    <path d="M223.59,2.55794522 C222.611759,2.99189186 221.560263,3.28504514 220.456916,3.41693088 C221.58313,2.74181416 222.448231,1.67276855 222.855455,0.398848008 C221.8013,1.02410874 220.633872,1.47799777 219.391194,1.72262455 C218.396201,0.662353592 216.97843,1.77635684e-15 215.409362,1.77635684e-15 C212.39673,1.77635684e-15 209.954052,2.44241225 209.954052,5.45504421 C209.954052,5.88260927 210.002312,6.29900659 210.095244,6.69825345 C205.561405,6.47077713 201.541815,4.29891678 198.85132,0.998449513 C198.381742,1.80412249 198.112653,2.74114941 198.112653,3.74092842 C198.112653,5.63359516 199.075738,7.30330588 200.53951,8.28154709 C199.64516,8.25322888 198.804122,8.00780441 198.068647,7.5992511 C198.068115,7.62198543 198.068115,7.64485272 198.068115,7.66785295 C198.068115,10.3108858 199.94855,12.5157175 202.444142,13.0169365 C201.986398,13.141643 201.504456,13.2082506 201.006827,13.2082506 C200.655176,13.2082506 200.313496,13.1739497 199.980325,13.1103999 C200.67472,15.277607 202.689168,16.854918 205.076406,16.8987913 C203.209399,18.3620316 200.857259,19.2340463 198.301308,19.2340463 C197.86098,19.2340463 197.426767,19.2082542 197,19.1577334 C199.414227,20.7056625 202.281811,21.6089203 205.36238,21.6089203 C215.396466,21.6089203 220.883551,13.296396 220.883551,6.0874842 C220.883551,5.85096733 220.878233,5.61577995 220.86773,5.38165617 C221.93385,4.61267721 222.858646,3.65185236 223.59,2.55794522 L223.59,2.55794522 Z" id="Shape-5"></path>
                </g>
            </g>
        </g>
    </g>
</svg>